<svg xmlns="http://www.w3.org/2000/svg" xmlns:xlink="http://www.w3.org/1999/xlink" viewBox="0 0 2433.17 2001.58"><defs><style>.a,.aa,.ac,.af,.am,.ap,.as,.ba,.bf,.l,.z{fill:none;}.b{isolation:isolate;}.c{fill:#f6d0d1;}.d,.n{fill:#9e6974;}.d{stroke:#9e6974;stroke-width:4px;opacity:0.42;}.ac,.af,.d,.z{stroke-miterlimit:10;}.e{fill:#efa0a4;}.f{fill:#4fb8a0;}.g{fill:#6e5487;opacity:0.34;mix-blend-mode:multiply;}.h{fill:snow;}.i{fill:#ede1e1;}.j{fill:#fff;}.k{fill:#504078;}.l{stroke:#65ab9b;stroke-width:7.77px;}.aa,.am,.ap,.as,.ba,.bf,.l{stroke-linecap:round;stroke-linejoin:round;}.m{fill:#6cccb6;}.o{fill:#ebefff;}.p{fill:#463757;}.q{fill:#56446b;}.r{fill:#644f7d;}.s{fill:#3b2f4a;}.t{fill:#e88087;}.u{fill:#cc6269;}.v{fill:#ffac80;}.w{fill:#b0555b;}.x{fill:#111a33;}.y{fill:#cf4977;}.z{stroke:#ad5a50;stroke-width:2.01px;}.aa{stroke:#8265a1;}.aa,.ac,.af{stroke-width:3.26px;}.ab{fill:url(#a);}.ac{stroke:#f7f3f3;}.ad{fill:#f7f3f3;}.ae,.ai{fill:#cc8f92;}.ae{opacity:0.28;}.af{stroke:#cc6269;}.ag{fill:#f9c2aa;}.ah{fill:#f28964;}.aj{fill:#f4a37f;}.ak{fill:#5981eb;}.al{fill:#f08b9e;}.am{stroke:#f2905c;}.am,.ap,.bf{stroke-width:4px;}.an{fill:#665180;}.ao{fill:#7c64ba;}.ap{stroke:#ede1e1;}.aq{fill:#6b5485;}.ar{fill:#cfbaba;}.as,.ba{stroke:#463757;}.as{stroke-width:6px;}.at{fill:#fffdfc;opacity:0.15;}.au{fill:#ed9e7e;}.av{fill:#3d8f6d;}.aw{fill:#4aad84;}.ax{fill:#7b66b5;}.ay{fill:#987ede;}.az{fill:#6d5ba1;}.ba{stroke-width:12px;}.bb{fill:url(#b);}.bc{opacity:0.68;}.bd{fill:#957bdb;}.be{fill:url(#c);}.bf{stroke:#ffcbb0;}.bg{clip-path:url(#d);}.bh{fill:#ededed;}</style><linearGradient id="a" x1="14214.13" y1="1721.4" x2="14178.13" y2="1745.38" gradientTransform="matrix(-1.14, -0.15, 0, 1, 18024.8, 1164.02)" gradientUnits="userSpaceOnUse"><stop offset="0" stop-color="#e47c83"/><stop offset="0.92" stop-color="#e88087"/></linearGradient><linearGradient id="b" x1="114.24" y1="734.01" x2="310.2" y2="734.01" gradientTransform="translate(478.47 17.82) rotate(36.52)" gradientUnits="userSpaceOnUse"><stop offset="0.04" stop-color="#675596"/><stop offset="0.84" stop-color="#7b66b5"/></linearGradient><linearGradient id="c" x1="160.11" y1="843.77" x2="437.49" y2="843.77" gradientTransform="matrix(1, 0, 0, 1, 0, 0)" xlink:href="#b"/><clipPath id="d"><polygon class="a" points="693.57 1095.85 586.92 723.55 989.81 490.95 1096.45 863.24 693.57 1095.85"/></clipPath></defs><g class="b"><rect class="c" x="2319.53" y="895.77" width="112.95" height="406.24"/><path class="c" d="M1279.72,2001.3H1107.51c-279.63,0-468.48-26.88-602.78-75.83-133.75-49-213-120-260.54-208.27s-63.76-193.85-73.48-311.88c-10.46-118-14.56-248.53-55.39-386.69-.39-1.32-.78-2.64-1.18-4C14.4,804.94-17.66,636.66,9,502.22,34.8,367.77,119.3,267.15,235.1,192.75,467.32,43.94,820.75,0,1033.16,0h299.6c352.86,0,608.7,104.55,780,280.93,172.36,176.38,260.11,424.6,302.48,711.94Q2367.7,1120.69,2321,1248.5c-92.5,276.32-266.23,464.52-451.47,583.64C1681.75,1951.26,1482.45,2001.3,1279.72,2001.3Z"/><line class="d" x1="1173.92" y1="318.2" x2="748.04" y2="569.93"/><polygon class="e" points="1173.92 318.2 1173.92 1.58 2433.03 1.58 2433.03 1127.73 1173.92 318.2"/><path class="f" d="M1382.63,556.91s92.51-30.53,78.87-157.89C1461.5,399,1346.27,461.88,1382.63,556.91Z"/><ellipse class="g" cx="1404.58" cy="837.54" rx="89.54" ry="28.59"/><path class="h" d="M1491.79,720.45l-224.1-6.53,36.19,110.93c1.35,10.26,8.82,20.32,22.45,28.18,30.12,17.39,78.81,17.48,108.74.2,12.55-7.25,19.8-16.4,21.78-25.87h0Z"/><path class="i" d="M1491.79,720.45c-31.08,62.08-62.15,124.18-112,145.68,20,.19,40.1-4.11,55.33-12.9,12.55-7.25,19.8-16.4,21.78-25.87h0Z"/><ellipse class="j" cx="1380.53" cy="706.87" rx="65.58" ry="113.6" transform="translate(666.19 2083.54) rotate(-89.69)"/><ellipse class="k" cx="1379.74" cy="704.75" rx="56.29" ry="97.51" transform="translate(667.52 2080.65) rotate(-89.69)"/><line class="l" x1="1381.59" y1="441.87" x2="1381.59" y2="720.89"/><path class="m" d="M1380.51,645.72s4.24-97.33-119.69-129.72C1260.82,516,1278.76,646,1380.51,645.72Z"/><path class="m" d="M1383.92,610.24s96.46-13.62,105.65-141.38C1489.57,468.86,1365,510.26,1383.92,610.24Z"/><path class="m" d="M1380.88,536.31s41.35-88.22-60.59-165.78C1320.29,370.53,1286.83,497.46,1380.88,536.31Z"/><polygon class="n" points="2332.08 789.45 1693.47 405.56 1693.47 1.58 2332.08 1.58 2332.08 789.45"/><polygon class="o" points="2269.58 1.58 2202.66 1.58 2293.54 56.84 2332.08 37.92 2269.58 1.58"/><polygon class="o" points="2130.2 1.58 2064.21 1.58 2294.02 142.19 2332.08 123.13 2130.2 1.58"/><polygon class="o" points="1988.66 1.58 1922.35 1.58 2296.48 229.05 2332.08 208.34 1988.66 1.58"/><polygon class="o" points="1847.13 1.58 1782.19 1.58 2298.78 315.66 2332.08 293.56 1847.13 1.58"/><polygon class="o" points="1680.63 1.58 1663.05 14.36 2296.58 399.54 2332.08 378.77 1705.6 1.58 1680.63 1.58"/><polygon class="o" points="1691.94 78.57 1663.05 99.57 2299.45 486.49 2332.08 463.98 1691.94 78.57"/><polygon class="o" points="1691.94 163.78 1663.05 184.78 2296.54 569.93 2332.08 549.19 1691.94 163.78"/><polygon class="o" points="1691.94 249 1663.05 270 2295.1 654.27 2332.08 634.4 1691.94 249"/><polygon class="o" points="1691.94 334.21 1663.05 355.21 2294.53 739.14 2332.08 719.62 1691.94 334.21"/><rect class="o" x="1603.82" y="1.58" width="11.75" height="257.1"/><circle class="o" cx="1609.7" cy="261.35" r="16.21" transform="translate(1271.54 1856.68) rotate(-87.25)"/><path class="g" d="M578.72,1215.21,1218.37,845.9c7.4-4.27,20.45-3.73,29,1.2l374.51,215.83c8.55,4.94,9.49,12.48,2.08,16.75L1034.53,1440a92.57,92.57,0,0,1-68,11.47h0a31.61,31.61,0,0,1-11.21-3.7L580.8,1232C572.25,1227,571.31,1219.49,578.72,1215.21Z"/><polygon class="p" points="516.03 1171.07 531.82 1181.08 538.45 1158.67 514.33 1158.67 516.03 1171.07"/><polygon class="p" points="1072.44 363.77 1056.7 353.78 1029.52 379.26 1063.35 384.54 1072.44 363.77"/><path class="p" d="M537.42,1171.28l629-363.13c13.89-8,20.78-30.13,15.3-49.12L1070.62,373.57c-5.47-19-21.31-28-35.21-20L404.75,720c-13.89,8-18,22.68-12.53,41.67l110,389.7C507.69,1170.32,523.53,1179.3,537.42,1171.28Z"/><path class="q" d="M553.64,1181.57l629-363.14c13.89-8,20.78-30.12,15.31-49.12L1086.85,383.86c-5.48-19-21.32-28-35.21-20L416.72,731.16c-13.89,8-16.7,18.75-11.22,37.74l112.94,392.71C523.91,1180.61,539.75,1189.59,553.64,1181.57Z"/><path class="r" d="M1163.22,648.92l-76.37-265.06c-5.48-19-21.32-28-35.21-20L646.45,598.28Z"/><path class="q" d="M542.92,1201.45v-20.52l92.33,53.78,5.26-12.13L1255.2,867.69c7.4-4.28,22.11-3.74,30.66,1.2l266.3,152.79v-4.25l40.45,19.65,5.68-2.3-.77,18.67c-.62,4.07-2.18,5.75-4.69,7.2L953.16,1430.94c-7.4,4.27-20.46,4.22-29-.72l-371.32-212.4C542.84,1212.73,542.92,1201.45,542.92,1201.45Z"/><path class="p" d="M542.92,1201.45v-20.52l92.33,53.78,5.26-12.13L942,1048.5l11.13,382.44c-3.7,2.13-8.82,3.19-14.08,3.09a31.49,31.49,0,0,1-14.93-3.81l-371.32-212.4C542.84,1212.73,542.92,1201.45,542.92,1201.45Z"/><path class="h" d="M547.91,1179.79l639.65-369.32c7.41-4.27,20.46-3.73,29,1.21l374.51,215.83c8.54,4.93,9.48,12.47,2.08,16.75L953.5,1413.57c-7.4,4.27-20.45,3.73-29-1.21L550,1196.53C541.44,1191.6,540.51,1184.06,547.91,1179.79Z"/><path class="i" d="M1217.09,914.48c.93.54,2.82.32,4.22-.49l38.84-22.41c1.4-.81,1.78-1.9.85-2.44l-25.72-14.86c-.94-.54-2.83-.32-4.23.49l-38.83,22.41c-1.4.81-1.79,1.9-.85,2.44Z"/><path class="i" d="M1172,981.4c.94.54,2.82.33,4.24-.49l38.83-22.41c1.4-.81,1.77-1.9.83-2.44L1190.2,941.2c-.91-.53-2.79-.32-4.19.49l-38.83,22.41c-1.42.82-1.79,1.9-.88,2.43Z"/><path class="i" d="M1194.81,1009.18c.94.54,2.82.31,4.22-.5l38.84-22.41c1.37-.8,1.79-1.9.86-2.43L1213,969c-.91-.53-2.83-.3-4.21.5l-38.84,22.41c-1.39.81-1.78,1.9-.86,2.43Z"/><path class="i" d="M1256.43,1014.54c.92.53,2.82.31,4.21-.49l38.84-22.41c1.38-.8,1.76-1.9.84-2.43l-25.73-14.87c-.92-.53-2.83-.31-4.21.49l-38.84,22.41c-1.39.8-1.76,1.9-.84,2.43Z"/><path class="i" d="M1363.3,999c.93.54,2.82.31,4.22-.49l38.84-22.41c1.4-.81,1.78-1.9.85-2.44L1377,956.15c-.91-.52-2.82-.31-4.22.5L1334,979.06c-1.4.81-1.77,1.91-.86,2.44Z"/><path class="i" d="M1296.34,1037.59c.93.53,3.17.11,5-1l50.88-29.36c1.82-1,2.57-2.35,1.64-2.89l-30.22-17.45c-.9-.52-3.18-.1-5,1l-50.88,29.36c-1.84,1.06-2.56,2.37-1.65,2.89Z"/><path class="i" d="M962.1,1230.76c.77.45,2.53.15,3.93-.66l38.81-22.39c1.41-.82,1.94-1.84,1.17-2.29L994.83,1199c-.76-.45-2.55-.15-4,.67L952.06,1222c-1.39.81-1.9,1.83-1.13,2.28Z"/><path class="i" d="M910.21,1261.48c.77.45,2.54.15,3.94-.66l38.8-22.39c1.42-.82,1.94-1.84,1.17-2.29L943,1229.69c-.77-.44-2.55-.15-4,.67l-38.8,22.39c-1.4.81-1.91,1.84-1.14,2.28Z"/><path class="i" d="M855.2,1292.51c.75.43,2.49.11,3.89-.69l38.82-22.4c1.39-.81,2-1.83,1.21-2.26L888.36,1261c-.74-.43-2.51-.11-3.9.69L845.64,1284c-1.4.81-1.93,1.82-1.2,2.25Z"/><path class="i" d="M889,1249.64c.75.43,2.5.11,3.89-.69l38.82-22.4c1.39-.81,2-1.83,1.21-2.26l-10.76-6.21c-.74-.43-2.51-.11-3.9.69l-38.82,22.4c-1.4.81-1.93,1.82-1.2,2.25Z"/><path class="i" d="M1029.21,1191.72c.93.54,2.84.31,4.24-.5l252.71-145.84c1.38-.79,1.79-1.9.86-2.43l-30.21-17.46c-.91-.52-2.85-.3-4.22.5L999.88,1171.82c-1.4.81-1.79,1.93-.88,2.45Z"/><path class="i" d="M1303.28,1028s.24,0,.4-.11l29.69-17.13c.16-.09.25-.2.19-.23l-1.88-1.09a.64.64,0,0,0-.4.11l-29.69,17.14c-.16.09-.25.2-.19.23Z"/><path class="i" d="M1379.39,980.75a.24.24,0,0,0,.23,0l12.6-7.27c.07,0,.08-.11,0-.14l-1.87-1.08a.24.24,0,0,0-.23,0l-12.61,7.27c-.07,0-.08.11,0,.14Z"/><path class="i" d="M1203.2,1045.24c.92.53,2.81.31,4.22-.5l38.83-22.41c1.38-.8,1.78-1.91.86-2.44L1221.38,1005c-.92-.54-2.85-.31-4.23.49l-38.83,22.41c-1.41.81-1.78,1.91-.86,2.44Z"/><path class="i" d="M1149.73,1076.09c.92.53,2.83.31,4.21-.49l38.82-22.4c1.4-.81,1.79-1.91.87-2.44l-25.73-14.87c-.92-.53-2.84-.31-4.24.49l-38.82,22.41c-1.38.8-1.76,1.9-.84,2.43Z"/><path class="i" d="M1096.26,1107c.92.53,2.82.31,4.21-.49l38.83-22.41c1.39-.8,1.77-1.9.85-2.43l-25.73-14.86c-.93-.54-2.83-.32-4.22.48l-38.83,22.41c-1.39.8-1.77,1.9-.84,2.43Z"/><path class="i" d="M1042.79,1137.81c.91.53,2.81.31,4.2-.49l38.84-22.41c1.4-.81,1.78-1.91.86-2.44L1061,1097.6c-.92-.53-2.83-.31-4.23.5l-38.84,22.41c-1.39.8-1.76,1.9-.84,2.43Z"/><path class="i" d="M989.31,1168.67c.92.53,2.83.3,4.24-.51l38.82-22.4c1.38-.8,1.76-1.9.84-2.43l-25.73-14.86c-.92-.54-2.83-.32-4.21.48l-38.82,22.4c-1.41.81-1.8,1.92-.88,2.45Z"/><path class="i" d="M935.83,1199.51c.92.53,2.83.31,4.22-.5l38.82-22.4c1.4-.81,1.79-1.91.87-2.44L954,1159.3c-.92-.53-2.83-.31-4.23.5L911,1182.2c-1.39.8-1.77,1.91-.85,2.44Z"/><path class="i" d="M815.39,1269c.92.53,2.82.31,4.22-.49l105.8-61.06c1.4-.81,1.77-1.9.85-2.43l-25.73-14.87c-.92-.53-2.82-.32-4.22.49l-105.8,61.06c-1.4.8-1.77,1.9-.85,2.43Z"/><path class="i" d="M1141.6,1039.86c.93.54,2.79.33,4.2-.48l38.84-22.42c1.39-.8,1.78-1.89.85-2.43l-25.74-14.87c-.91-.52-2.8-.31-4.2.5l-38.84,22.41c-1.4.81-1.76,1.9-.85,2.42Z"/><path class="i" d="M1088.12,1070.73c.93.54,2.82.3,4.2-.49l38.85-22.43c1.38-.79,1.78-1.88.84-2.42l-25.73-14.87c-.91-.52-2.81-.3-4.19.49l-38.85,22.42c-1.39.8-1.77,1.9-.86,2.43Z"/><path class="i" d="M1034.65,1101.58c.93.54,2.82.31,4.21-.49l38.83-22.41c1.38-.79,1.8-1.9.87-2.44l-25.74-14.87c-.91-.52-2.84-.29-4.21.51l-38.83,22.41c-1.39.8-1.78,1.9-.87,2.43Z"/><path class="i" d="M981.18,1132.44c.94.54,2.82.31,4.21-.5l38.83-22.4c1.39-.81,1.79-1.89.86-2.43l-25.74-14.87c-.91-.53-2.81-.31-4.21.5l-38.82,22.4c-1.4.81-1.78,1.9-.86,2.43Z"/><path class="i" d="M927.69,1163.28c.93.54,2.82.31,4.21-.49l38.84-22.42c1.4-.81,1.79-1.89.85-2.42l-25.73-14.87c-.91-.53-2.8-.32-4.2.49L902.81,1146c-1.38.8-1.77,1.9-.86,2.42Z"/><path class="i" d="M874.23,1194.13c.94.54,2.81.32,4.21-.49l38.82-22.4c1.41-.81,1.8-1.9.87-2.44l-25.74-14.87c-.91-.52-2.81-.31-4.22.51l-38.82,22.4c-1.39.8-1.76,1.9-.85,2.42Z"/><path class="i" d="M820.76,1225c.94.54,2.82.31,4.2-.49l38.85-22.42c1.39-.8,1.77-1.88.84-2.42l-25.74-14.87c-.91-.52-2.79-.31-4.18.49l-38.85,22.42c-1.39.8-1.77,1.89-.86,2.42Z"/><path class="i" d="M1118.82,1012.09c.93.54,2.82.32,4.23-.49l38.83-22.41c1.38-.8,1.76-1.89.82-2.43L1137,971.89c-.91-.53-2.81-.31-4.19.49L1094,994.79c-1.41.81-1.78,1.9-.87,2.43Z"/><path class="i" d="M1065.36,1042.94c.93.54,2.83.32,4.21-.48l38.83-22.41c1.4-.81,1.79-1.9.85-2.44l-25.74-14.87c-.91-.53-2.81-.31-4.2.5l-38.84,22.41c-1.38.8-1.76,1.89-.85,2.42Z"/><path class="i" d="M1011.88,1073.8c.94.54,2.83.32,4.23-.49l38.83-22.41c1.39-.8,1.77-1.89.83-2.43L1030,1033.6c-.92-.53-2.81-.31-4.2.49L987,1056.5c-1.4.81-1.78,1.91-.87,2.43Z"/><path class="i" d="M958.42,1104.65c.94.54,2.81.33,4.21-.48l38.84-22.41c1.4-.81,1.78-1.9.84-2.44l-25.73-14.87c-.91-.53-2.81-.31-4.21.5l-38.84,22.41c-1.4.81-1.76,1.9-.85,2.42Z"/><path class="i" d="M904.93,1135.49c.94.54,2.83.32,4.21-.47L948,1112.61c1.4-.81,1.77-1.9.83-2.44l-25.73-14.87c-.91-.53-2.8-.31-4.2.5L880,1118.21c-1.38.79-1.76,1.89-.84,2.42Z"/><path class="i" d="M851.45,1166.36c.94.54,2.83.32,4.24-.5l38.83-22.4c1.38-.8,1.77-1.9.83-2.44l-25.73-14.87c-.91-.53-2.82-.3-4.2.49l-38.83,22.41c-1.41.82-1.79,1.91-.88,2.44Z"/><path class="i" d="M798,1197.21c.94.54,2.83.32,4.22-.48L841,1174.32c1.4-.81,1.78-1.9.84-2.44L816.15,1157c-.92-.53-2.81-.31-4.21.5l-38.83,22.41c-1.39.8-1.77,1.89-.86,2.42Z"/><path class="i" d="M1225.51,950.54c.94.54,2.83.32,4.23-.49l65.85-38c1.4-.8,1.78-1.9.84-2.44l-25.73-14.87c-.91-.52-2.81-.31-4.21.5l-65.85,38c-1.4.81-1.78,1.91-.87,2.43Z"/><path class="i" d="M709.09,1207.6c.92.53,2.82.31,4.22-.49l65.85-38c1.37-.8,1.77-1.9.84-2.44l-25.72-14.86c-.94-.54-2.85-.3-4.22.49l-65.85,38c-1.4.81-1.78,1.9-.85,2.44Z"/><path class="i" d="M1248.3,978.31c.93.54,2.8.32,4.21-.49l78.5-45.3c1.4-.81,1.79-1.9.86-2.44l-25.74-14.87c-.91-.52-2.81-.3-4.21.51L1223.43,961c-1.42.81-1.78,1.9-.87,2.42Z"/><path class="i" d="M1309.89,983.69c.92.53,2.82.31,4.22-.49L1366.45,953c1.4-.81,1.78-1.9.86-2.44l-25.74-14.86c-.92-.53-2.82-.32-4.22.49L1285,966.38c-1.4.81-1.78,1.91-.86,2.44Z"/><path class="i" d="M1163.63,945.33c.93.54,2.82.33,4.23-.49l38.81-22.4c1.4-.8,1.78-1.9.85-2.44l-25.72-14.86c-.93-.54-2.83-.31-4.23.49l-38.8,22.4c-1.42.82-1.8,1.9-.86,2.44Z"/><path class="i" d="M1110.39,976c.93.54,2.83.31,4.23-.49l38.84-22.41c1.39-.81,1.78-1.91.85-2.44l-25.73-14.86c-.93-.54-2.83-.31-4.22.49l-38.83,22.41c-1.4.81-1.79,1.9-.86,2.44Z"/><path class="i" d="M1057,1006.88c.93.53,2.8.32,4.2-.49L1100,984c1.39-.8,1.77-1.89.84-2.43l-25.72-14.86c-.94-.54-2.83-.32-4.22.48l-38.83,22.41c-1.41.81-1.77,1.9-.84,2.43Z"/><path class="i" d="M1003.46,1037.74c.93.54,2.83.32,4.22-.49l38.81-22.4c1.41-.81,1.79-1.9.86-2.44l-25.72-14.86c-.94-.54-2.83-.32-4.23.5l-38.81,22.39c-1.4.81-1.79,1.9-.86,2.44Z"/><path class="i" d="M950,1068.59c.92.54,2.79.33,4.2-.48L993,1045.7c1.4-.81,1.78-1.9.85-2.44l-25.72-14.86c-.93-.54-2.82-.32-4.23.5l-38.82,22.4c-1.41.81-1.77,1.89-.84,2.43Z"/><path class="i" d="M896.51,1099.44c.92.54,2.83.31,4.21-.48l38.84-22.42c1.39-.8,1.77-1.89.84-2.43l-25.73-14.86c-.93-.54-2.81-.32-4.2.48l-38.85,22.42c-1.38.79-1.77,1.89-.84,2.43Z"/><path class="i" d="M843,1130.3c.93.53,2.83.31,4.23-.49l38.83-22.41c1.4-.81,1.79-1.91.86-2.45l-25.72-14.86c-.94-.54-2.83-.31-4.24.5L818.16,1113c-1.4.81-1.78,1.9-.85,2.44Z"/><path class="i" d="M789.58,1161.15c.93.53,2.81.32,4.2-.48l38.86-22.43c1.38-.79,1.76-1.89.83-2.42L807.74,1121c-.93-.54-2.82-.32-4.2.47l-38.86,22.43c-1.38.8-1.76,1.89-.83,2.42Z"/><path class="i" d="M758.48,1188.36a6.13,6.13,0,0,1,2.28-.75,3.12,3.12,0,0,1,1.91.26l25.73,14.87a.87.87,0,0,1,.47,1.11,2.8,2.8,0,0,1-1.29,1.32L777.45,1211l33.74,19.49a.87.87,0,0,1,.44,1.12,2.82,2.82,0,0,1-1.3,1.32L784.17,1248a6.13,6.13,0,0,1-2.29.76,3.25,3.25,0,0,1-1.94-.25l-61.17-35.34a.86.86,0,0,1-.43-1.12,2.76,2.76,0,0,1,1.31-1.32Z"/><path class="i" d="M1316.84,971.15a.67.67,0,0,0,.41-.11l29.68-17.13c.17-.1.26-.2.2-.24l-1.88-1.08a.64.64,0,0,0-.4.11l-29.69,17.13c-.16.1-.25.2-.19.24Z"/><path class="i" d="M1165.16,1225.16l150.2-86.71c8.09-4.68,7.57-12-1.17-16.39l-50.2-24.94c-8.73-4.35-22.5-4.07-30.6.6l-150.19,86.72c-8.1,4.67-7.57,12,1.17,16.39l50.19,24.94C1143.3,1230.11,1157.07,1229.84,1165.16,1225.16Z"/><path class="s" d="M1631.79,788S1597.14,944.31,1686,962.34s105-3.09,105-3.09-46.1,6.33-77.12-5.83-75.63-33.78-68.47-109.82l7.16-76Z"/><path class="s" d="M1893,1000.76c11.67,3.56-19.3-268.6-14.56-279.84,6.35-15.06-164.31-109.24-147-124,35-30,51.26-55.4,40.77-73.46l-15.08-38.58s27.87-35.41-33.46-5.79c-19.46,9.4-112.25,44.77-95.85,154.28,4.49,30,1.1,100.49,2.48,134.72C1635.07,885.75,1701,942.09,1893,1000.76Z"/><path class="t" d="M2037.44,981.93,1938.93,765c-7.9-44.89,8.77-78.11-36.12-70.22l-13.29,2.34c-44.9,7.89-95.77,48.79-87.88,93.68l50.69,222.8C1860.22,1058.49,2045.33,1026.82,2037.44,981.93Z"/><path class="u" d="M1826.6,900.4s24.39-43.08,19.47-65.6c-8.15,9.41-17.56,17.28-29.62,21Z"/><path class="t" d="M1700.69,528.86s-38.9,46.46-30.25,98.7c1.65,10,6.32,34.67,8.87,46.19,6.07,27.41.73,32.66-7.91,60.11-1,3.06-3.94,9-17.46,29-2.12,3.13-1.46,7.43,0,10.92,3.14,7.46,10.71,18.52,28.76,16.21,7.88-1,9.12,11,13,28.39,6.07,27.43,17.2,55.34,31.85,64.75,28.2,18.11,130.22-26.68,130.22-26.68l30.53-167.31Z"/><path class="v" d="M1735.78,879.3c-14.65-9.41-25.78-37.32-31.85-64.75-3.85-17.33-5.09-29.4-13-28.39-18,2.31-25.62-8.75-28.76-16.2-1.47-3.49-2.13-7.8,0-10.93,13.52-20,16.49-25.94,17.46-29,8.64-27.45,14-32.7,7.91-60.11-2.55-11.51-7.22-36.24-8.87-46.19-6.7-40.45,15.11-77.42,25.3-92.05l-3.3-2.82s-38.9,46.46-30.25,98.7c1.65,10,6.32,34.67,8.87,46.19,6.07,27.41.73,32.66-7.91,60.11-1,3.06-3.94,9-17.46,29-2.12,3.13-1.46,7.43,0,10.92,3.14,7.46,10.71,18.52,28.76,16.21,7.88-1,9.12,11,13,28.39,6.07,27.43,17.2,55.34,31.85,64.75,28.2,18.11,130.21-26.68,130.21-26.68l.08-.39C1833.05,866.19,1759.12,894.3,1735.78,879.3Z"/><path class="w" d="M1737.87,683.56c-11.16-2.77-31.19-2.95-42.48-2.91-12.86.05-12-13.14-.24-13.62,21.57-.87,29.59,1.33,44.26,8.28C1743.06,677,1742.47,684.7,1737.87,683.56Z"/><ellipse class="x" cx="1706.97" cy="706.72" rx="4.75" ry="13.3" transform="translate(-103.47 338.61) rotate(-11)"/><path class="y" d="M1699.59,818.93c14.18-1.18,18.08-1.91,40.74-12.19,0,0-16.74,33.35-40,29.41Z"/><path class="z" d="M1700.32,772.41s1.53,9.68-6.1,15.56"/><path class="y" d="M1719.17,815.51s-17.57-9.55-24.12,0l4.93,19.43Z"/><path class="aa" d="M1686,530s39.62-45,84.39-53.92"/><path class="ab" d="M1829.22,737.43s-11,12-24.12,23.89c-21.55,19.59-30.57,48.06-24.21,77.63l2.7,12.53S1841.9,815.27,1829.22,737.43Z"/><path class="ac" d="M1680.33,720.81c2.76,18.66,16.93,32,31.64,29.85s24.4-19.07,21.64-37.74-16.37-26.28-31.16-24.61C1686,690.15,1677.57,702.14,1680.33,720.81Z"/><line class="ac" x1="1726.04" y1="688.08" x2="1830.88" y2="682.3"/><path class="ad" d="M1721.44,692.24l9.46-.46c1.34-.07,2.36-1.63,2.27-3.46h0c-.09-1.84-1.26-3.28-2.6-3.22l-14.52.72c-22.87.47-6,1.69-2.27,3.46h0C1713.87,691.11,1720.1,692.31,1721.44,692.24Z"/><path class="ad" d="M1680.13,726.67c1.58,3.43,4.44,5.5,6.4,4.62s2.25-4.39.67-7.83-4.45-5.5-6.4-4.62S1678.54,723.23,1680.13,726.67Z"/><path class="ae" d="M1251.83,1081.21c1.33-8.21,17.77-14.82,39.22-20-7.44-2.34-12.68-7.13-13.66-15.43,0,0,12.86-4.31,28.9-8.31a16.91,16.91,0,0,1-5.88-11.37s41.23-13.8,68.21-14.93a173.71,173.71,0,0,1,56.59,4.75c26.08,6.49,35,17.5,92.86,52.7l305.34,67.82-40.26,149.36-302-131.93-37.7,4.72-70.75-17.53s-39.76,2.84-42.18-13.77c-2.7-18.5,43.84-10.92,43.84-10.92l34.18,4.48c9.82-.07,14.22.07,15.85-9.34,1-5.6-6.13-9.44-6.35-10.49-.51-2.48-82.69-16.27-82.69-16.27S1246.53,1113.87,1251.83,1081.21Z"/><path class="t" d="M1335.31,1034.24s-88.78,29.12-83.48-3.53c1.33-8.21,17.77-14.82,39.22-20-7.44-2.33-12.68-7.13-13.66-15.43,0,0,12.86-4.3,28.9-8.3a16.93,16.93,0,0,1-5.88-11.37s41.23-13.81,68.21-14.93a173.71,173.71,0,0,1,56.59,4.75c26.73,6.65,35.4,18,97.25,55.36,0,0-2.28,2.06-5.86,5a31.52,31.52,0,0,1,17.61,30.91l-.13,1.5a48.16,48.16,0,0,1-42,43.82l-48.65,6.1-70.75-17.53s-39.76,2.84-42.18-13.77c-2.7-18.51,43.84-10.92,43.84-10.92l34.18,4.48c9.82-.07,14.22.07,15.85-9.35,1-5.59-6.13-9.44-6.35-10.48C1417.49,1048,1335.31,1034.24,1335.31,1034.24Z"/><polyline class="af" points="1291.05 1010.7 1340.07 998.43 1424.8 1024.72"/><path class="af" d="M1306.29,987c2.86-2.41,49.77-14.46,49.77-14.46l84.74,26.23"/><polygon class="t" points="1518.06 1018.11 1823.41 1085.94 1783.15 1235.29 1471.13 1099.01 1518.06 1018.11"/><path class="ag" d="M1574.64,1027.35,1523,1013.57s-34,54.17-33.48,98.75l44.3,14.61Z"/><path class="ah" d="M1582.2,1009.9s-54.38,43.33-57.56,125.51l347.38,137s74.48,26.39,131.6-48.09-131.94-147.22-131.94-147.22Z"/><polygon class="ai" points="2426.48 1235.29 2433.03 2001.58 1048.6 2001.58 2426.48 1235.29"/><polygon class="e" points="2424.21 1139.3 2407.69 1343.4 1320.7 2001.58 1037.24 2001.58 2424.21 1139.3"/><path class="v" d="M1730.34,1064.61c46.61-21,86.57-45.57,123.45-71.54,211.6-24.14,214.72-136.52,214.72-136.52,99.47-39.37,138.92,21.3,188.07,171.52,12,36.73,48.31,475.12,48.31,475.12s5.09,372.71-37,387.7l-471.2,103.52s17.32-175.12,6.4-298.87c-5.61-63.62-89.72-212-114.59-253.52-1.69-2.83-27.92,39.88-28.77,37.66-15.58-40.63-11.24-81,9.13-123.46C1629.84,1272.66,1588.94,1128.18,1730.34,1064.61Z"/><path class="aj" d="M1775.7,1042.06c185.11-36.83,303.72,108.81,320-161.42,0,0-55.38-27.14-71,0-27.33,47.67-29.22,73.87-106.27,73.33-39.89-.28-91-2.14-102.59,17.48Z"/><path class="ak" d="M1114.72,552.6Z"/><path class="al" d="M1505.76,1579.84s-43.59,20.63-71.64-23.84-23.83-90-23.83-90Z"/><path class="ae" d="M1317.19,1610.43C1100.56,1518.55,882,1347.69,882,1347.69l87.45-71.45,620.86,252.39-132.47,74.16A160,160,0,0,1,1317.19,1610.43Z"/><path class="t" d="M1559.62,1532.22c-43,38.31-55.81,63.5-118.82,55.22-82.09-10.78-357.31-162.25-429.47-218.84-28.26-22.16-5.86-94.83,27.69-81.74,80.19,31.28,310.48,130.4,385.78,142,6.57,1,69.83-3.67,72.88-5.39C1503.43,1420.26,1619.12,1479.22,1559.62,1532.22Z"/><path class="t" d="M864.44,1166a14.87,14.87,0,0,0-2.32,13.93,1.21,1.21,0,0,0,0,.18c4.74,14.66,29,27.57,72.23,38.38,1.41.72,6.33,4.2,13.08,9.15-14.73-2.51-32.21-.76-44.33,5.23-48,23.74-64.95,44-65.65,44.86l-1,1.15.23,1.48c.09.56,1,5.53,7,8.25,11.73,5.34,33.83-2.12,65.69-22.16,8.56-5.38,19.6-6.07,32.92-2.07-8.79-1.07-17.39.28-24.36,3.93-21.75,11.39-61.91,44.65-63.61,46.07l-1.6,1.32.48,2c.12.5,1.35,5,7.11,7.22a19.42,19.42,0,0,0,6.89,1.2l-1,.6-2.93,1.71,1.75,2.9c12.86,21.41,36.59,8.41,53.93-1.09,2.23-1.22,4.42-2.42,6.52-3.52,8.15-4.26,20.52-7.31,28.59-1.89,22.25,15,37.57,27.55,43.11,35.45,1.37,1.94,16,15.49,17.94,17.62,36.61,40.35,86.39-5,74.83-59.06-43.27-42.46-96.17-113.8-130.53-123.83l-.43-.32-93.17-30.38Z"/><polyline class="af" points="871.55 1324.6 944.49 1286.7 982.16 1306.8"/><line class="af" x1="942.41" y1="1264.33" x2="969.4" y2="1276.24"/><path class="v" d="M1855.8,1282.76l-283,281.94c-91.58,67.09-214-83.6-143-145.08l229.92-314.36c43.76-53.67,128.19-54.78,163.46-15.39h0C1859.92,1130.93,1898.26,1236,1855.8,1282.76Z"/><path class="ah" d="M1694.47,1450.31s98.33,168,104.5,216.77-2.3,317.58-2.3,317.58l58.29-.39,82.82-251.9-133.56-401.52c-8.33-25-43.2,12.8-62.7,30.59l-108,89.84,30.81,20.49Z"/><path class="am" d="M1805.58,1322s33.54-182.68-63.8-259.58"/><path class="p" d="M1801.22,1742.88c71,29,113.11,3.69,149.25-33.88L1855,2000.41l-396.23,1.17L1673,1932.42A170.15,170.15,0,0,0,1795.26,1775Z"/><path class="an" d="M2433,2001.58,1855,2000.52a203.47,203.47,0,0,1,4.63-32.2l105.7-446.92c19.14-80.92,77.52-161.91,146-202.48L2433,1127.73Z"/><path class="q" d="M2433,2001.58H2024.17l66-419.1c28.83-121.9,202.57-199,305.67-260.13l37.2-20.81C2433.34,1306.44,2433,2001.58,2433,2001.58Z"/><path class="ag" d="M1154.85,1327l-49.36-21.5s-51.32,48.86-46,104.32l39.9,26.09Z"/><path class="v" d="M1158,1321.94s-48.73,29.24-67.87,120.26l334.7,165.62s72,32.53,135.16-36.91-119.16-157.74-119.16-157.74Z"/><path class="ah" d="M1708.91,1454.41,1572.82,1563c-67.06,72.44-141.39,51.3-172,32.94,62.88-4.26,164.89-78.1,237.55-148.62C1650.08,1435.91,1708.91,1454.41,1708.91,1454.41Z"/><path class="p" d="M2064.94,730.18s.32,49.31-14.11,69.32c-17.11,23.73-116.88-107.57-234.47-128.86C1701.3,649.82,1686.15,569.92,1686,530c0-12.32,4.51-24,14.07-34.7,36.33-40.74,151-63.49,253.65-25.23C2067,512.31,2064.36,660.75,2064.94,730.18Z"/><path class="p" d="M2015,1080.82s-114.18-45.76-96.32-134.09,12-102.64,12-102.64l19.14,23.51s-27.3,78.38-18.41,113.74c9.76,38.82,54.49,87.05,83.62,83.6S2015,1080.82,2015,1080.82Z"/><path class="p" d="M1800.89,453.26c-87.3,18.69,25,46.11-2,131.21-7.13,22.46,49.59,92.68,60.32,111.62,34.42,60.78-4.46,58.19,67.89,142.93,20.61,24.14,14.05,91,17.76,127.34,11.44,112.13,203,225.05,292,171.68,50.73-2.4,50.52-93.31,24.35-156.78-4.31,23.32,38.61-61.94-62.23-142.15-30.2-24,9.48-75.29-81.46-165.56-50.49-50.13-40.32-101-97.18-163.73C1959.53,442.71,1898.21,432.42,1800.89,453.26Z"/><ellipse class="t" cx="1861.94" cy="714.67" rx="34.65" ry="50.2" transform="translate(-43.22 124.8) rotate(-3.79)"/><path class="u" d="M1867.82,714.83c2.57,11.47-4.72,22.87-10.6,24.2s-2.09-9.3-4.65-20.78-10.54-19.45-4.66-20.77S1865.25,703.35,1867.82,714.83Z"/><path class="af" d="M1827.36,716.86s-.72-29.23,11.76-41.6"/><polygon class="g" points="369.43 1758.1 428.37 1753.18 572 1666.28 416.66 1572.73 369.43 1758.1"/><polygon class="q" points="369.43 1758.1 535.69 1662.11 535.69 1652.37 302.12 1527.25 135.86 1613.51 135.86 1623.25 369.43 1758.1"/><polygon class="ao" points="369.43 1748.36 535.69 1652.37 302.12 1517.52 135.86 1613.51 369.43 1748.36"/><polygon class="i" points="369.45 1732.83 526.13 1642.36 526.13 1620.06 306.02 1515.28 149.34 1583.43 149.34 1605.74 369.45 1732.83"/><polygon class="h" points="369.45 1710.52 526.13 1620.06 306.02 1492.97 149.34 1583.43 369.45 1710.52"/><path class="i" d="M302.78,1524.22l7.75-4.48c3.25-1.87,2.84-5.18-.91-7.35h0c-3.76-2.17-9.49-2.41-12.74-.53l-7.76,4.48c-3.25,1.88-2.84,5.19.91,7.35h0C293.79,1525.86,299.52,1526.1,302.78,1524.22Z"/><path class="i" d="M270.39,1542.86l7.76-4.47c3.25-1.88,2.84-5.19-.92-7.36h0c-3.75-2.17-9.48-2.4-12.74-.53l-7.75,4.48c-3.25,1.88-2.84,5.19.91,7.36h0C261.41,1544.5,267.14,1544.74,270.39,1542.86Z"/><path class="i" d="M238,1561.51l7.76-4.48c3.25-1.88,2.84-5.19-.92-7.35h0c-3.75-2.17-9.48-2.41-12.74-.53l-7.75,4.47c-3.25,1.88-2.84,5.19.91,7.36h0C229,1563.15,234.76,1563.39,238,1561.51Z"/><path class="i" d="M205.63,1580.15l7.76-4.48c3.25-1.87,2.84-5.18-.92-7.35h0c-3.75-2.17-9.49-2.41-12.74-.53l-7.75,4.48c-3.25,1.88-2.84,5.19.91,7.35h0C196.65,1581.79,202.38,1582,205.63,1580.15Z"/><path class="p" d="M254.16,1523c-.53-1.13-1.42-3.75-1.8-4.91-2.32-7-1.74-13.72,1.59-18.33,2.85-4,7.53-6.12,13.19-6.12,13.15,0,27.6,11.39,32.23,25.39a1.48,1.48,0,0,0,1.89,1,1.5,1.5,0,0,0,.95-1.89c-5-15.13-20.73-27.44-35.07-27.44-6.64,0-12.19,2.61-15.62,7.35-3.9,5.4-4.63,13.07-2,21,.41,1.26,1.6,4.16,2.17,5.4Z"/><path class="p" d="M221.77,1541.66c-.52-1.14-1.41-3.76-1.79-4.92-2.32-7-1.74-13.72,1.59-18.33,2.85-3.94,7.53-6.11,13.19-6.11,13.14,0,27.6,11.38,32.23,25.38a1.5,1.5,0,1,0,2.84-.94c-5-15.13-20.73-27.44-35.07-27.44-6.64,0-12.19,2.61-15.62,7.35-3.9,5.41-4.63,13.07-2,21,.41,1.26,1.6,4.16,2.17,5.4Z"/><path class="p" d="M189.39,1560.3c-.52-1.13-1.41-3.76-1.79-4.91-2.32-7-1.74-13.72,1.59-18.34,2.85-3.94,7.53-6.11,13.19-6.11,13.14,0,27.6,11.39,32.22,25.39a1.5,1.5,0,0,0,2.85-.94c-5-15.14-20.73-27.45-35.07-27.45-6.64,0-12.19,2.61-15.62,7.36-3.9,5.4-4.63,13.06-2,21,.42,1.26,1.61,4.16,2.18,5.39Z"/><path class="p" d="M157,1578.94c-.52-1.13-1.41-3.75-1.79-4.91-2.33-7-1.75-13.72,1.59-18.33,2.85-4,7.53-6.12,13.19-6.12,13.14,0,27.6,11.39,32.22,25.39a1.5,1.5,0,0,0,2.85-.94c-5-15.13-20.73-27.45-35.07-27.45-6.65,0-12.19,2.62-15.62,7.36-3.9,5.4-4.64,13.07-2,21,.42,1.26,1.61,4.16,2.18,5.4Z"/><line class="ap" x1="344.55" y1="1687.33" x2="486.05" y2="1604.24"/><line class="ap" x1="295.2" y1="1658.85" x2="436.18" y2="1576.06"/><line class="ap" x1="246.39" y1="1630.05" x2="386.32" y2="1547.88"/><line class="ap" x1="198.92" y1="1600.46" x2="337.73" y2="1518.95"/><path class="g" d="M926.45,1781.46l133.44-77c8.43-4.86,7.36-13.44-2.37-19.05l-252.7-145.91c-9.73-5.61-24.58-6.23-33-1.36l-133.44,77c-8.43,4.87-7.36,13.44,2.37,19.06l252.7,145.9C903.17,1785.71,918,1786.32,926.45,1781.46Z"/><path class="h" d="M613.77,1620.87v-.25l.52-11.95,9.37,1.59,129.22-74.6c8.43-4.87,23.28-4.25,33,1.36l247.15,142.69,14.14,2.4-.53,11.57h0c0,3.12-1.83,6.09-5.66,8.3l-133.45,77c-8.42,4.86-23.28,4.25-33-1.37l-252.7-145.9c-5.37-3.1-8.09-7.1-8-10.88Z"/><path class="p" d="M908.07,1767.46l133.44-77c8.43-4.87,7.36-13.44-2.37-19.06l-252.7-145.9c-9.73-5.62-24.59-6.24-33-1.37l-133.44,77c-8.42,4.87-7.36,13.45,2.37,19.06l252.7,145.9C884.78,1771.71,899.64,1772.33,908.07,1767.46Z"/><polygon class="q" points="873.95 1765.46 1040.28 1672.06 784.61 1524.49 620.52 1619.04 873.95 1765.46"/><polygon class="aq" points="957.87 1637.13 780.59 1534.8 666.81 1600.37 957.87 1637.13"/><path class="g" d="M688.9,1412.65c-34.61-20-90.54-20.08-124.94-.23s-34.22,52.16.39,72.14c26.38,15.23,65.14,18.9,97.31,11l10.73,7c5.42,3.56,15.22,3.51,21.78-.12s7.5-9.5,2.08-13.06l-7-4.6,0,0C723.69,1464.93,723.51,1432.63,688.9,1412.65Z"/><ellipse class="h" cx="584.23" cy="1441.64" rx="51.01" ry="88.35" transform="translate(-860.55 2018.04) rotate(-89.69)"/><rect class="h" x="495.88" y="1299.85" width="176.69" height="141.79"/><path class="i" d="M620.52,1299.1v141.79h0c.14,13.11-8.41,26.21-25.68,36.18-10.35,6-22.67,10.11-35.76,12.48,30.33,5.46,64.65,1.33,88.57-12.48,17.26-10,25.81-23.07,25.67-36.18h0l-.76-140Z"/><ellipse class="j" cx="584.23" cy="1299.85" rx="51.01" ry="88.35" transform="matrix(0.01, -1, 1, 0.01, -718.77, 1877.02)"/><ellipse class="ar" cx="584.23" cy="1298.98" rx="45.37" ry="78.59" transform="translate(-717.9 1876.16) rotate(-89.69)"/><path class="q" d="M639.63,1294.64c-30.79-17.77-80.55-17.86-111.15-.2-9.09,5.25-15.39,11.48-19.06,18.11,3.72,6.72,10.15,13.07,19.41,18.42,30.79,17.77,80.55,17.86,111.14.2,9.09-5.25,15.4-11.48,19.06-18.11C655.32,1306.34,648.89,1300,639.63,1294.64Z"/><path class="an" d="M517.25,1322.46c.12-.29.25-.59.4-.9a30,30,0,0,1,22-16.28c22.64-4.07,46.82-2.45,65.38,5.67,9.61,4.21,16.57,9.71,20.94,15.88a30.79,30.79,0,0,1,4.53,9C579.56,1357.35,524.72,1333.89,517.25,1322.46Z"/><path class="h" d="M639.16,1365c10,5.25,25.21,9.85,28.68,22,1.92,6.74,1.57,31.37,1.12,47.24a9.41,9.41,0,0,1-14.35,7.73c-2-1.2-3.66-2.27-4.81-2.86-12.91-6.71-24.38,12.83-11.43,19.55,9.47,4.92,23,14.53,34.2,13.26,16-1.8,18.1-17.82,18.45-30.74.52-19.73,3.22-43.39-1.27-62.73-4.16-18-24.57-25.37-39.16-33-12.88-6.77-24.34,12.77-11.43,19.56Z"/><rect class="m" x="536.8" y="1390.63" width="50.81" height="40.01" rx="14.15"/><path class="as" d="M560.4,1402.76s-1.33-61.57,20.71-63"/><path class="at" d="M579.47,1322s-48-47.5-18.39-92,8.31-97.8,8.31-97.8,62.42,50.72,49.16,79.88S574.17,1280.67,579.47,1322Z"/><path class="au" d="M1815.86,971.45l-40.16,70.61s48.6-6.29,59.84-6.35l33.71-79.84S1827.85,950.37,1815.86,971.45Z"/><path class="au" d="M1775.7,1042.06s-52.24,22.17-71.36,30.72c-15.72,7-32.57,16.81-41.74,29.1-20.33,27.22-123.59,168.4-123.59,168.4s120.35-167.2,166.5-183.43l130-51.14Z"/><path class="av" d="M2433.13,1534a98.7,98.7,0,0,0-55.51-13.38c-23,1.3-47.07,2.69-61.48,1.83,23.45,29.74,99.82,81,111.83,177.51q-44.79-115.51-142.64-167.69c-21-11.24-46.1-13.64-68.14-4.58q-2.21.9-4.3,1.94c-102.9,50.44-213.27,67.48-213.27,67.48s39.06,64.61,72.81,120.58a204.45,204.45,0,0,0,200.29,97.45c33.35-4.17,54.72-11.71,54.72-11.71-45.25,46.56-145.62,36.9-182.43,31.49,15.35,11.46,29.84,21,37.08,27.83q3.47,3.29,6.81,6.47c41.81,39.9,99.69,59.47,156.75,50.28a210.56,210.56,0,0,0,71.94-25.61s-44.86,52.36-103.71,67.18c21.29,8.84,46.66,16.87,78.41,24.22a312.41,312.41,0,0,0,40.84,6.82Z"/><path class="aw" d="M2433.13,1748.27V1333.75a73.5,73.5,0,0,0-15.54-2.71c-1.58-.1-3.15-.15-4.72-.14-114.59.4-221.31-32.52-221.31-32.52s6.89,75.18,12.78,140.27a204.46,204.46,0,0,0,137.56,175.2c31.82,10.83,54.33,13.38,54.33,13.38-61.05,22.1-147.1-30.46-177.85-51.42,8.8,17,17.66,32,21.19,41.25,1.13,3,2.22,5.9,3.3,8.79,20.16,54.17,63.67,97.07,119,113.74A210.15,210.15,0,0,0,2433.13,1748.27Z"/><path class="aw" d="M2433.13,1749.86c-15.61,6-68.14,23.64-118,13.24,15.29,17.25,34.6,35.56,59.94,56.05,21.75,17.58,41,29.3,58.06,36.84Z"/><ellipse class="g" cx="304.74" cy="1370.68" rx="101.05" ry="169.66" transform="translate(-1092.85 1506.14) rotate(-83)"/><ellipse class="q" cx="275.85" cy="1364.15" rx="157.98" ry="94.01" transform="translate(-71.98 16.55) rotate(-3.04)"/><ellipse class="ax" cx="273.22" cy="1314.57" rx="157.98" ry="94.01" transform="matrix(1, -0.05, 0.05, 1, -69.35, 16.35)"/><path class="ay" d="M301.6,1239,322,1286.83a9.76,9.76,0,0,1-3.65,12l-58.27,37.9A9.76,9.76,0,0,1,245,1329l-2.61-59.37a9.74,9.74,0,0,1,4.43-8.6l40.46-26.32A9.75,9.75,0,0,1,301.6,1239Z"/><path class="az" d="M285.57,1222.77l-21.45-10.47-48.47,32.07-6.06,66.38a10.71,10.71,0,0,0,3.95,9.33l9.19,7.4a13.37,13.37,0,0,0,21.75-11l-2.3-52.42,44.16-28.73A7.23,7.23,0,0,0,285.57,1222.77Z"/><polyline class="ba" points="247.76 757.62 108.88 987.57 262.76 1232.94"/><polyline class="ba" points="209.52 739.46 67.58 993.17 233.23 1252.66"/><path class="bb" d="M210.55,612.45h3.35a60.15,60.15,0,0,1,60.15,60.15V795.42a60.16,60.16,0,0,1-60.16,60.16h-3.35a60.15,60.15,0,0,1-60.15-60.15V672.61a60.16,60.16,0,0,1,60.16-60.16Z" transform="translate(-395.13 270.41) rotate(-36.52)"/><g class="bc"><path class="bd" d="M201.93,664.14l44.44,56a6.49,6.49,0,0,0,9.09,1.05h0a6.49,6.49,0,0,0,1-9.09l-44.43-56a6.49,6.49,0,0,0-9.1-1.05h0A6.49,6.49,0,0,0,201.93,664.14Z"/></g><g class="bc"><path class="bd" d="M163.62,674l44.44,56a6.49,6.49,0,0,0,9.09,1h0a6.49,6.49,0,0,0,1-9.09l-44.43-56a6.5,6.5,0,0,0-9.1-1h0A6.49,6.49,0,0,0,163.62,674Z"/></g><g class="bc"><path class="bd" d="M137.05,705.41l44.43,56a6.5,6.5,0,0,0,9.1,1.05h0a6.5,6.5,0,0,0,1-9.1l-44.44-56a6.49,6.49,0,0,0-9.09-1.05h0A6.5,6.5,0,0,0,137.05,705.41Z"/></g><ellipse class="az" cx="321.4" cy="895.3" rx="150.82" ry="44.2" transform="translate(-449.38 337.84) rotate(-34.38)"/><path class="be" d="M187.31,964.22l-18.68-51.38a141.27,141.27,0,0,1,59.51-169.05h0a141.24,141.24,0,0,1,166.58,14.76l42.77,37.65Z"/><ellipse class="p" cx="313.02" cy="881.35" rx="150.82" ry="44.2" transform="translate(-442.97 330.67) rotate(-34.38)"/><path class="az" d="M367.94,864.65c-9.51,23.5-31.57,55-81.3,53.24-21.53-.75-33.83-25-21.16-42.45,16.9-23.23,48.48-44.71,75.26-47.48C360.63,825.9,375.45,846.11,367.94,864.65Z"/><path class="bd" d="M288.07,844.88c68.74-47,135.64-68.83,149.42-48.68,2.58,3.77,3.12,8.75,1.83,14.65-25.91-4.08-80.56,17.47-136.43,55.69s-95.77,81.35-101.36,107c-6-.94-10.41-3.24-13-7C174.76,946.36,219.32,891.91,288.07,844.88Z"/><path class="ax" d="M117.68,970.73l-54,27.65a12.28,12.28,0,0,0-4.77,17.52l25.84,40.68a8.35,8.35,0,0,0,11,2.86l55-29.88a9,9,0,0,0,3.3-12.71l-27.76-43.78A6.6,6.6,0,0,0,117.68,970.73Z"/><path class="az" d="M67.06,996.63l-6.3,3.72a9.6,9.6,0,0,0-3.23,13.42l26.91,42.37a8.91,8.91,0,0,0,11.78,3l10.33-5.61Z"/><path class="bf" d="M440,809.67s-33-11.3-133.87,54"/><g class="b"><g class="bg"><path class="h" d="M727.8,1046.33c-4,2.3-8.28.46-9.59-4.1l-.3-1.06a11.38,11.38,0,0,1,4.85-12.43l120.91-69.81c4-2.31,8.28-.47,9.59,4.09l.3,1.06a11.4,11.4,0,0,1-4.85,12.44L727.8,1046.33m-8.36-29.2c-4,2.3-8.28.47-9.59-4.1l-.3-1a11.39,11.39,0,0,1,4.85-12.44L959.15,858.23c4-2.3,8.29-.47,9.6,4.1l.3,1a11.4,11.4,0,0,1-4.86,12.44L719.44,1017.13m-8.37-29.2c-4,2.3-8.28.47-9.59-4.1l-.3-1.06A11.4,11.4,0,0,1,706,970.34l312.12-180.2c4-2.3,8.28-.47,9.59,4.09l.3,1.07a11.38,11.38,0,0,1-4.85,12.43L711.07,987.93m-16.13-56.32c-4,2.3-8.28.46-9.59-4.1l-.3-1.07A11.37,11.37,0,0,1,689.9,914l120.91-69.81c4-2.31,8.28-.47,9.59,4.09l.3,1.06a11.4,11.4,0,0,1-4.85,12.44L694.94,931.61m-8.37-29.2c-4,2.3-8.27.47-9.58-4.1l-.31-1.06a11.38,11.38,0,0,1,4.86-12.43L926.29,743.51c4-2.3,8.28-.48,9.59,4.09l.31,1.06a11.41,11.41,0,0,1-4.86,12.44L686.57,902.41m-8.36-29.2c-4,2.3-8.28.46-9.59-4.1l-.3-1.06a11.39,11.39,0,0,1,4.85-12.43l312.12-180.2c4-2.31,8.28-.47,9.59,4.09l.3,1.07A11.4,11.4,0,0,1,990.32,693L678.21,873.21m75.26-110.3c-4,2.3-8.28.47-9.59-4.1l-.3-1a11.39,11.39,0,0,1,4.85-12.44l120.91-69.81c4-2.3,8.28-.47,9.59,4.1l.3,1a11.38,11.38,0,0,1-4.86,12.44l-120.9,69.81m-8.36-29.2c-4,2.31-8.29.47-9.59-4.09l-.31-1.06a11.42,11.42,0,0,1,4.86-12.44L960.23,589c4-2.3,8.29-.47,9.59,4.1l.31,1a11.41,11.41,0,0,1-4.86,12.44L745.11,733.71m-8.36-29.2c-4,2.31-8.29.48-9.6-4.09l-.3-1.06a11.39,11.39,0,0,1,4.86-12.43L951.87,559.82c4-2.31,8.28-.47,9.59,4.08l.3,1.07a11.4,11.4,0,0,1-4.85,12.44L736.75,704.51M672.5,813.87c-9.34,5.39-19.39,1.09-22.45-9.6l-13.19-46c-3.06-10.68,2-23.71,11.37-29.11l40.25-23.24c9.34-5.39,19.39-1.1,22.45,9.59l13.19,46c3.06,10.68-2,23.72-11.36,29.12L672.5,813.87M966.69,504.3,610.05,710.2c-12.77,7.38-19.73,25.2-15.55,39.81l99.07,345.84,402.88-232.61L997.39,517.4c-4.19-14.61-17.93-20.48-30.7-13.1"/><path class="bh" d="M688.48,705.87l-40.25,23.24c-9.34,5.4-14.43,18.43-11.37,29.11l13.19,46c3.06,10.69,13.11,15,22.45,9.6l40.26-23.24c9.33-5.4,14.42-18.44,11.36-29.12l-13.19-46c-3.06-10.69-13.11-15-22.45-9.59"/><path class="bh" d="M951.87,559.82,731.71,686.93a11.39,11.39,0,0,0-4.86,12.43l.3,1.06c1.31,4.57,5.61,6.4,9.6,4.09l220.16-127.1A11.4,11.4,0,0,0,961.76,565l-.3-1.07c-1.31-4.55-5.6-6.39-9.59-4.08"/><path class="bh" d="M960.23,589,740.07,716.12a11.42,11.42,0,0,0-4.86,12.44l.31,1.06c1.3,4.56,5.6,6.4,9.59,4.09L965.27,606.6a11.41,11.41,0,0,0,4.86-12.44l-.31-1c-1.3-4.57-5.6-6.4-9.59-4.1"/><path class="bh" d="M869.34,675.51,748.43,745.32a11.39,11.39,0,0,0-4.85,12.44l.3,1c1.31,4.57,5.6,6.4,9.59,4.1l120.9-69.81a11.38,11.38,0,0,0,4.86-12.44l-.3-1c-1.31-4.57-5.6-6.4-9.59-4.1"/><path class="bh" d="M985.29,675.42,673.17,855.62a11.39,11.39,0,0,0-4.85,12.43l.3,1.06c1.31,4.56,5.6,6.4,9.59,4.1L990.32,693a11.4,11.4,0,0,0,4.86-12.43l-.3-1.07c-1.31-4.56-5.6-6.4-9.59-4.09"/><path class="bh" d="M926.29,743.51,681.54,884.82a11.38,11.38,0,0,0-4.86,12.43l.31,1.06c1.31,4.57,5.6,6.4,9.58,4.1L931.33,761.1a11.41,11.41,0,0,0,4.86-12.44l-.31-1.06c-1.31-4.57-5.6-6.39-9.59-4.09"/><path class="bh" d="M810.81,844.21,689.9,914a11.37,11.37,0,0,0-4.85,12.42l.3,1.07c1.31,4.56,5.6,6.4,9.59,4.1L815.85,861.8a11.4,11.4,0,0,0,4.85-12.44l-.3-1.06c-1.31-4.56-5.6-6.4-9.59-4.09"/><path class="bh" d="M1018.15,790.14,706,970.34a11.4,11.4,0,0,0-4.85,12.43l.3,1.06c1.31,4.57,5.61,6.4,9.59,4.1l312.12-180.2A11.38,11.38,0,0,0,1028,795.3l-.3-1.07c-1.31-4.56-5.6-6.39-9.59-4.09"/><path class="bh" d="M959.15,858.23,714.4,999.54a11.39,11.39,0,0,0-4.85,12.44l.3,1c1.31,4.57,5.6,6.4,9.59,4.1L964.19,875.82a11.4,11.4,0,0,0,4.86-12.44l-.3-1c-1.31-4.57-5.61-6.4-9.6-4.1"/><path class="bh" d="M843.67,958.93l-120.91,69.81a11.38,11.38,0,0,0-4.85,12.43l.3,1.06c1.31,4.56,5.6,6.4,9.59,4.1l120.91-69.81a11.4,11.4,0,0,0,4.85-12.44l-.3-1.06c-1.31-4.56-5.6-6.4-9.59-4.09"/></g></g></g></svg>